# xmcd
#
# Track frame offsets: 
#        150
#        20949
#        39765
#        57509
#        77773
#        95864
#        114471
#        132911
#        151005
#        167649
#        184268
#        202777
#        220970
#        242988
#
# Disc length: 4440 seconds
#
# Revision: 32
# Processed by: cddbd v1.5.2PL0 Copyright (c) Steve Scherf et al.
# Submitted via: ExactAudioCopyFreeDBPlugin 1.0
#
DISCID=bf11560e
DTITLE=Eros Ramazzotti - Eros 9
DYEAR=2003
DGENRE=Pop
TTITLE0=Un Segundo De Paz
TTITLE1=Solo Ayer
TTITLE2=Una Emoción Para Siempre
TTITLE3=Revivirte Otra Vez
TTITLE4=La Noche Son Tus Ojos
TTITLE5=Un Ancla En El Viento
TTITLE6=Piedra Pequeña
TTITLE7=Mamará, Una Gran Mujer
TTITLE8=El Hombre Que Miraba Las Nubes
TTITLE9=Cancion Para Ella
TTITLE10=No Te Prometo Nada
TTITLE11=Falsa Salida
TTITLE12=Hay Una Melodia
TTITLE13=Data Track
EXTD=
EXTT0=
EXTT1=
EXTT2=
EXTT3=
EXTT4=
EXTT5=
EXTT6=
EXTT7=
EXTT8=
EXTT9=
EXTT10=
EXTT11=
EXTT12=
EXTT13=
PLAYORDER=
